<svg xmlns="http://www.w3.org/2000/svg">
<path d="M0.763419 8.7879H2.55366V16.2339C2.55366 16.3809 2.67157 16.5 2.81708 16.5H5.8525C5.99802 16.5 6.11592 16.3809 6.11592 16.2339V8.82298H8.17396C8.30777 8.82298 8.42036 8.72153 8.43564 8.58724L8.74821 5.846C8.7568 5.77058 8.73314 5.69506 8.6832 5.63848C8.6332 5.58184 8.56166 5.54943 8.48658 5.54943H6.11603V3.83109C6.11603 3.31309 6.39209 3.05042 6.93663 3.05042C7.01423 3.05042 8.48658 3.05042 8.48658 3.05042C8.63209 3.05042 8.75 2.93125 8.75 2.7843V0.268098C8.75 0.121089 8.63209 0.00196935 8.48658 0.00196935H6.35052C6.33545 0.00122419 6.302 0 6.25269 0C5.88206 0 4.59378 0.0735048 3.57615 1.01933C2.44861 2.06745 2.60535 3.32241 2.6428 3.54V5.54938H0.763419C0.617906 5.54938 0.5 5.6685 0.5 5.81551V8.52172C0.5 8.66873 0.617906 8.7879 0.763419 8.7879Z"/>
</svg>
