<svg xmlns="http://www.w3.org/2000/svg">
<path fill-rule="evenodd" clip-rule="evenodd" d="M18.5735 7.15326C19.2701 7.79708 20.0053 8.40282 20.6301 9.11156C20.9061 9.42652 21.1674 9.75153 21.3673 10.117C21.6505 10.6366 21.394 11.2084 20.9018 11.2394L17.8425 11.2381C17.0534 11.3001 16.424 10.9994 15.8947 10.4887C15.4711 10.0803 15.0789 9.64559 14.6716 9.22338C14.5046 9.05082 14.3298 8.88844 14.121 8.7601C13.7034 8.50347 13.3409 8.58205 13.1022 8.99439C12.8591 9.41378 12.804 9.87817 12.7801 10.3456C12.7474 11.0275 12.5296 11.2068 11.806 11.2381C10.2595 11.3071 8.79175 11.0856 7.4283 10.3471C6.22623 9.69601 5.29408 8.77688 4.48274 7.73634C2.90304 5.71017 1.69332 3.48375 0.606057 1.19495C0.361324 0.679285 0.540303 0.402476 1.14134 0.392679C2.13938 0.374325 3.13729 0.375632 4.13651 0.391373C4.54214 0.39699 4.81068 0.617235 4.9673 0.979999C5.50728 2.23687 6.16799 3.43267 6.99734 4.54108C7.2182 4.83618 7.44341 5.13128 7.76411 5.33898C8.11889 5.56896 8.38902 5.49274 8.55592 5.11861C8.66183 4.88138 8.7082 4.62586 8.73207 4.37179C8.81114 3.49766 8.82156 2.62504 8.68287 1.75399C8.59773 1.21037 8.27427 0.858446 7.70125 0.755574C7.40884 0.703125 7.45238 0.600122 7.59396 0.442123C7.83987 0.169626 8.07115 0 8.53219 0H11.9897C12.534 0.101697 12.6549 0.333176 12.7294 0.851654L12.7324 4.48733C12.7265 4.68805 12.8383 5.28366 13.2202 5.41651C13.5259 5.51109 13.7273 5.27961 13.9107 5.09614C14.7386 4.26441 15.3294 3.28147 15.8572 2.26365C16.0915 1.81611 16.2929 1.35132 16.4881 0.886924C16.6327 0.542318 16.8596 0.372757 17.2697 0.380269L20.5973 0.383077C20.696 0.383077 20.7958 0.384449 20.8914 0.399929C21.4521 0.490392 21.6058 0.718736 21.4326 1.23708C21.1597 2.05033 20.6288 2.72805 20.1096 3.4089C19.5547 4.1358 18.9612 4.83782 18.4109 5.56903C17.9053 6.23675 17.9454 6.57332 18.5735 7.15326Z"/>
</svg>
