<svg width="28" height="28" fill="none" xmlns="http://www.w3.org/2000/svg"><g clip-path="url(#a)" fill="#0DD1A2"><path d="M5.472 14.969a1.269 1.269 0 1 0 0-2.538 1.269 1.269 0 0 0 0 2.538ZM22.133 14.969a1.269 1.269 0 1 0 0-2.538 1.269 1.269 0 0 0 0 2.538Z"/><path d="M14 0A13.973 13.973 0 0 0 2.728 5.608H6.699a8.665 8.665 0 0 0 4.094-1.105c.396-.208.835-.32 1.283-.328a2.92 2.92 0 0 1 2.933 2.852 2.893 2.893 0 0 1-4.284 2.525 10.63 10.63 0 0 0-5.008-1.365H4.352a9.62 9.62 0 0 0-3.343.628 14 14 0 0 0 0 10.37 7.46 7.46 0 0 0 1.897.26h3.357a8.664 8.664 0 0 0 4.093-1.106c.396-.208.836-.32 1.283-.327a2.92 2.92 0 0 1 2.947 2.838 2.892 2.892 0 0 1-4.243 2.592 10.63 10.63 0 0 0-5.008-1.364H3.97c-.415.002-.83.034-1.241.095A14 14 0 1 0 13.999 0Zm8.187 17.18a3.383 3.383 0 0 1-1.61-.41 12.514 12.514 0 0 0-5.895-1.637h-1.61c-2.07.05-4.096.612-5.895 1.637a3.398 3.398 0 0 1-5.008-3.057 3.438 3.438 0 0 1 3.48-3.329 3.37 3.37 0 0 1 1.5.396 10.193 10.193 0 0 0 4.763 1.364h3.957a10.193 10.193 0 0 0 4.762-1.364 3.37 3.37 0 0 1 1.501-.396 3.438 3.438 0 0 1 3.48 3.343 3.397 3.397 0 0 1-3.398 3.452h-.027Z"/><path d="M11.585 21.928a1.078 1.078 0 1 0 0-2.156 1.078 1.078 0 0 0 0 2.156ZM12.008 8.078a1.078 1.078 0 1 0 0-2.156 1.078 1.078 0 0 0 0 2.156Z"/></g><defs><clipPath id="a"><path fill="#fff" d="M0 0h28v28H0z"/></clipPath></defs></svg>