<svg width="31" height="31" fill="none" xmlns="http://www.w3.org/2000/svg"><path d="m30.412 9.538-1.927-1.927a.887.887 0 0 0-1.046-.13 2.818 2.818 0 0 1-3.527-.392 2.823 2.823 0 0 1-.392-3.528.846.846 0 0 0-.131-1.046L21.462.588a2.05 2.05 0 0 0-2.875 0l-4.9 4.9 2.025 2.025-1.176 1.176-2.025-2.025L.588 18.587a2.05 2.05 0 0 0 0 2.875l1.927 1.927a.839.839 0 0 0 1.013.13c1.11-.685 2.548-.49 3.495.425a2.86 2.86 0 0 1 .425 3.495c-.196.327-.163.752.13 1.013l1.96 1.96c.392.392.915.588 1.438.588.522 0 1.045-.196 1.437-.588l11.923-11.923-2.025-2.025 1.176-1.176 2.025 2.025 4.9-4.9a2.05 2.05 0 0 0 0-2.875Zm-14.765.294 1.176-1.176 2.189 2.19-1.176 1.175-2.189-2.189Zm5.488 5.488-2.189-2.188 1.176-1.176 2.189 2.188-1.176 1.176Z" fill="#fff"/></svg>