<svg xmlns="http://www.w3.org/2000/svg" xmlns:xlink="http://www.w3.org/1999/xlink"><symbol id="fb-logo"><path d="M.763 8.788h1.79v7.446c0 .147.119.266.264.266h3.035c.146 0 .264-.12.264-.266V8.823h2.058a.264.264 0 0 0 .262-.236l.312-2.741a.268.268 0 0 0-.065-.208.262.262 0 0 0-.196-.089H6.116V3.831c0-.518.276-.78.82-.78h1.55c.146 0 .264-.12.264-.267V.268a.265.265 0 0 0-.263-.266H6.35L6.253 0c-.37 0-1.66.074-2.677 1.02-1.127 1.047-.97 2.302-.933 2.52v2.01H.763a.265.265 0 0 0-.263.266v2.706c0 .147.118.266.263.266Z"/></symbol><symbol id="nav-fb-logo"><g fill="none"><path d="M.351 11.717h2.387v9.928c0 .196.157.355.351.355h4.048a.353.353 0 0 0 .35-.355v-9.881h2.745a.352.352 0 0 0 .349-.314l.417-3.655a.357.357 0 0 0-.087-.277.35.35 0 0 0-.262-.119H7.488V5.11c0-.692.368-1.042 1.094-1.042h2.067A.353.353 0 0 0 11 3.712V.357a.353.353 0 0 0-.351-.354H7.8A2.764 2.764 0 0 0 7.67 0C7.175 0 5.457.098 4.1 1.36 2.599 2.756 2.808 4.43 2.858 4.72V7.4H.351A.353.353 0 0 0 0 7.753v3.608c0 .196.157.355.351.355Z" fill="#fff"/></g></symbol><symbol id="nav-vk-logo"><g fill="none"><path fill-rule="evenodd" clip-rule="evenodd" d="M24.098 9.538c.929.858 1.91 1.666 2.742 2.61.368.42.716.854.983 1.341.378.693.036 1.455-.62 1.497l-4.08-.002c-1.052.083-1.891-.318-2.597-1-.564-.544-1.087-1.123-1.63-1.686a3.806 3.806 0 0 0-.735-.618c-.556-.342-1.04-.237-1.358.313-.324.559-.398 1.178-.43 1.801-.043.91-.334 1.148-1.298 1.19-2.062.092-4.02-.203-5.837-1.188-1.603-.868-2.846-2.093-3.928-3.48C3.204 7.613 1.591 4.644.141 1.592-.185.906.054.537.855.523 2.185.5 3.516.502 4.85.523c.54.007.899.301 1.107.785.72 1.675 1.601 3.27 2.707 4.748.295.393.595.787 1.022 1.064.473.306.834.205 1.056-.294.141-.316.203-.657.235-.996.105-1.165.12-2.329-.066-3.49-.113-.725-.544-1.194-1.308-1.332C9.212.937 9.27.8 9.459.59 9.786.226 10.095 0 10.709 0h4.61c.726.136.887.444.987 1.136l.004 4.847c-.008.268.141 1.062.65 1.239.408.126.676-.183.921-.427 1.104-1.11 1.892-2.42 2.595-3.777.313-.597.581-1.216.841-1.835.193-.46.496-.686 1.043-.676l4.436.004c.132 0 .265.002.393.022.747.12.952.425.721 1.116-.364 1.085-1.072 1.988-1.764 2.896-.74.97-1.531 1.905-2.265 2.88-.674.89-.62 1.34.217 2.113Z" fill="#fff"/></g></symbol><symbol id="vk-logo"><path fill-rule="evenodd" clip-rule="evenodd" d="M18.573 7.153c.697.644 1.432 1.25 2.057 1.959.276.315.537.64.737 1.005.284.52.027 1.091-.465 1.122h-3.06c-.789.061-1.418-.24-1.947-.75-.424-.409-.816-.843-1.223-1.266a2.853 2.853 0 0 0-.551-.463c-.418-.257-.78-.178-1.019.234-.243.42-.298.884-.322 1.352-.033.681-.25.86-.974.892-1.546.07-3.014-.152-4.378-.89-1.202-.652-2.134-1.571-2.945-2.612C2.903 5.71 1.693 3.484.606 1.195.361.679.54.402 1.141.393A87.711 87.711 0 0 1 4.137.39c.405.006.674.226.83.589.54 1.257 1.201 2.453 2.03 3.561.221.295.446.59.767.798.355.23.625.154.792-.22a2.36 2.36 0 0 0 .176-.747c.08-.874.09-1.747-.05-2.618-.084-.544-.408-.896-.98-.998C7.408.703 7.451.6 7.593.442 7.84.17 8.071 0 8.532 0h3.458c.544.102.665.333.74.852l.002 3.635c-.005.201.106.797.488.93.306.094.507-.137.69-.32.829-.833 1.42-1.816 1.947-2.833.235-.448.436-.913.631-1.377.145-.345.372-.514.782-.507l3.327.003c.099 0 .199.001.294.017.561.09.715.319.542.837-.273.813-.804 1.491-1.323 2.172-.555.727-1.149 1.429-1.7 2.16-.505.668-.465 1.004.163 1.584Z"/></symbol></svg>